<svg width="60" height="28" viewBox="0 0 60 28" fill="none" xmlns="http://www.w3.org/2000/svg">
<path d="M30.0579 27.2321C28.4343 27.2328 26.8318 26.8694 25.3715 26.1694C23.9119 25.4669 22.6114 24.4806 21.5482 23.2696C20.3251 21.8887 19.3945 20.2802 18.8115 18.539C18.5287 17.7085 18.0135 16.9738 17.3254 16.4198C16.6373 15.8658 15.8043 15.515 14.9228 15.408C14.0412 15.301 13.1469 15.4422 12.3432 15.8151C11.5394 16.1881 10.859 16.7777 10.3805 17.5158C10.2051 17.7869 10.0089 18.0444 9.79369 18.286C8.72612 19.4859 7.2474 20.1743 5.73706 20.1743C4.22671 20.1743 2.748 19.4859 1.68042 18.286C0.596688 17.0652 0 15.4458 0 13.7238C0 12.0018 0.596688 10.3825 1.68042 9.16514C2.748 7.96516 4.22671 7.27678 5.73706 7.27678C7.2474 7.27678 8.72612 7.96516 9.79369 9.16514C10.0071 9.4045 10.2018 9.65941 10.3763 9.92769C10.8022 10.5827 11.3881 11.1217 12.0802 11.4951C12.7723 11.8685 13.5485 12.0645 14.3374 12.0649C14.5326 12.0648 14.7276 12.053 14.9214 12.0296C15.8028 11.921 16.6352 11.5687 17.3223 11.0134C18.0094 10.4581 18.5232 9.72241 18.8044 8.89132C19.3874 7.14479 20.3194 5.53127 21.5454 4.14616C22.6096 2.9354 23.911 1.9495 25.3715 1.24776C26.8313 0.548403 28.4329 0.185028 30.0558 0.185028C31.6786 0.185028 33.2803 0.548403 34.74 1.24776C36.2001 1.94941 37.5012 2.93534 38.5647 4.14616C39.7347 5.4667 40.637 6.99633 41.2227 8.65215C41.512 9.45883 42.0216 10.171 42.6953 10.7101C43.369 11.2492 44.1805 11.5943 45.0404 11.7072C45.2469 11.7342 45.4549 11.7479 45.6631 11.7481C46.4247 11.748 47.175 11.5656 47.8494 11.2167C48.5239 10.8677 49.1025 10.3626 49.5356 9.74468C49.6764 9.5436 49.8289 9.35079 49.9924 9.16722C51.0607 7.96724 52.5387 7.27886 54.0491 7.27886C55.5594 7.27886 57.0381 7.96724 58.1057 9.16722C59.1894 10.3845 59.7861 12.0039 59.7861 13.7259C59.7861 15.4479 59.1894 17.0673 58.1057 18.2846C57.0381 19.4846 55.5594 20.1729 54.0491 20.1729C52.5387 20.1729 51.0607 19.4846 49.9924 18.2846C49.8273 18.0987 49.6732 17.9035 49.5307 17.7002C49.0381 16.9959 48.3579 16.4396 47.565 16.0925C46.7722 15.7454 45.8975 15.6211 45.0376 15.7332C44.1776 15.8454 43.3658 16.1896 42.6917 16.7281C42.0175 17.2665 41.5072 17.9781 41.2171 18.7844C40.6316 20.4324 39.732 21.9548 38.5668 23.2696C37.5033 24.4804 36.2022 25.4663 34.7421 26.168C33.2826 26.8681 31.6808 27.2319 30.0579 27.2321Z" fill="#81E0FF"/>
</svg>
